<svg width="134" height="23" viewBox="0 0 134 23" fill="none" xmlns="http://www.w3.org/2000/svg">
<path d="M0.66 9.96C0.66 8.57333 0.96 7.34 1.56 6.26C2.16 5.16667 2.99333 4.32 4.06 3.72C5.14 3.10667 6.36 2.8 7.72 2.8C9.38667 2.8 10.8133 3.24 12 4.12C13.1867 5 13.98 6.2 14.38 7.72H10.62C10.34 7.13333 9.94 6.68667 9.42 6.38C8.91333 6.07333 8.33333 5.92 7.68 5.92C6.62667 5.92 5.77333 6.28667 5.12 7.02C4.46667 7.75333 4.14 8.73333 4.14 9.96C4.14 11.1867 4.46667 12.1667 5.12 12.9C5.77333 13.6333 6.62667 14 7.68 14C8.33333 14 8.91333 13.8467 9.42 13.54C9.94 13.2333 10.34 12.7867 10.62 12.2H14.38C13.98 13.72 13.1867 14.92 12 15.8C10.8133 16.6667 9.38667 17.1 7.72 17.1C6.36 17.1 5.14 16.8 4.06 16.2C2.99333 15.5867 2.16 14.74 1.56 13.66C0.96 12.58 0.66 11.3467 0.66 9.96ZM19.1699 11.5215C19.1699 12.6022 19.3457 13.4193 19.6973 13.9727C20.0553 14.526 20.6348 14.8027 21.4355 14.8027C22.2298 14.8027 22.7995 14.5293 23.1445 13.9824C23.4961 13.429 23.6719 12.6087 23.6719 11.5215C23.6719 10.4408 23.4961 9.63021 23.1445 9.08984C22.793 8.54948 22.2168 8.2793 21.416 8.2793C20.6217 8.2793 20.0488 8.54948 19.6973 9.08984C19.3457 9.6237 19.1699 10.4342 19.1699 11.5215ZM26.7188 11.5215C26.7188 13.2988 26.25 14.6888 25.3125 15.6914C24.375 16.694 23.0697 17.1953 21.3965 17.1953C20.3483 17.1953 19.4238 16.9674 18.623 16.5117C17.8223 16.0495 17.207 15.3887 16.7773 14.5293C16.3477 13.6699 16.1328 12.6673 16.1328 11.5215C16.1328 9.73763 16.5983 8.35091 17.5293 7.36133C18.4603 6.37174 19.7689 5.87695 21.4551 5.87695C22.5033 5.87695 23.4277 6.10482 24.2285 6.56055C25.0293 7.01628 25.6445 7.67057 26.0742 8.52344C26.5039 9.3763 26.7188 10.3757 26.7188 11.5215ZM19.7949 19.7441C19.7949 18.7676 20.3353 18.2793 21.416 18.2793C22.4967 18.2793 23.0371 18.7676 23.0371 19.7441C23.0371 20.2064 22.9004 20.5645 22.627 20.8184C22.3535 21.0723 21.9499 21.1992 21.416 21.1992C20.3353 21.1992 19.7949 20.7142 19.7949 19.7441ZM23.6719 4.88086C22.6497 4.27539 21.888 3.70247 21.3867 3.16211C20.8789 3.68945 20.1335 4.26237 19.1504 4.88086H17.168V4.61719C18.3984 3.38672 19.2318 2.4069 19.668 1.67773H23.1543C23.3561 2.01628 23.7044 2.47852 24.1992 3.06445C24.7005 3.64388 25.1855 4.16146 25.6543 4.61719V4.88086H23.6719ZM35.6572 5.72C36.9639 5.72 38.0039 6.14667 38.7772 7C39.5639 7.84 39.9572 9 39.9572 10.48V17H36.5572V10.94C36.5572 10.1933 36.3639 9.61333 35.9772 9.2C35.5905 8.78667 35.0705 8.58 34.4172 8.58C33.7639 8.58 33.2439 8.78667 32.8572 9.2C32.4705 9.61333 32.2772 10.1933 32.2772 10.94V17H28.8572V5.84H32.2772V7.32C32.6239 6.82667 33.0905 6.44 33.6772 6.16C34.2639 5.86667 34.9239 5.72 35.6572 5.72ZM46.5738 5.68C47.3604 5.68 48.0471 5.84 48.6338 6.16C49.2338 6.48 49.6938 6.9 50.0138 7.42V5.84H53.4338V16.98C53.4338 18.0067 53.2271 18.9333 52.8138 19.76C52.4138 20.6 51.7938 21.2667 50.9538 21.76C50.1271 22.2533 49.0938 22.5 47.8538 22.5C46.2004 22.5 44.8604 22.1067 43.8338 21.32C42.8071 20.5467 42.2204 19.4933 42.0738 18.16H45.4538C45.5604 18.5867 45.8138 18.92 46.2138 19.16C46.6138 19.4133 47.1071 19.54 47.6938 19.54C48.4004 19.54 48.9604 19.3333 49.3738 18.92C49.8004 18.52 50.0138 17.8733 50.0138 16.98V15.4C49.6804 15.92 49.2204 16.3467 48.6338 16.68C48.0471 17 47.3604 17.16 46.5738 17.16C45.6538 17.16 44.8204 16.9267 44.0738 16.46C43.3271 15.98 42.7338 15.3067 42.2938 14.44C41.8671 13.56 41.6538 12.5467 41.6538 11.4C41.6538 10.2533 41.8671 9.24667 42.2938 8.38C42.7338 7.51333 43.3271 6.84667 44.0738 6.38C44.8204 5.91333 45.6538 5.68 46.5738 5.68ZM50.0138 11.42C50.0138 10.5667 49.7738 9.89333 49.2938 9.4C48.8271 8.90667 48.2538 8.66 47.5738 8.66C46.8938 8.66 46.3138 8.90667 45.8338 9.4C45.3671 9.88 45.1338 10.5467 45.1338 11.4C45.1338 12.2533 45.3671 12.9333 45.8338 13.44C46.3138 13.9333 46.8938 14.18 47.5738 14.18C48.2538 14.18 48.8271 13.9333 49.2938 13.44C49.7738 12.9467 50.0138 12.2733 50.0138 11.42ZM67.0063 5.72C68.2863 5.72 69.3129 6.14667 70.0863 7C70.8596 7.84 71.2463 9 71.2463 10.48V17H67.8463V10.94C67.8463 10.1933 67.6529 9.61333 67.2663 9.2C66.8796 8.78667 66.3596 8.58 65.7063 8.58C65.0529 8.58 64.5329 8.78667 64.1463 9.2C63.7596 9.61333 63.5663 10.1933 63.5663 10.94V17H60.1463V2.2H63.5663V7.34C63.9129 6.84667 64.3863 6.45333 64.9863 6.16C65.5863 5.86667 66.2596 5.72 67.0063 5.72ZM81.6797 17L81.2793 15.6035H81.1035C80.791 16.1048 80.3418 16.4954 79.7559 16.7754C79.1764 17.0553 78.5124 17.1953 77.7637 17.1953C76.4811 17.1953 75.5143 16.8535 74.8633 16.1699C74.2122 15.4798 73.8867 14.4902 73.8867 13.2012V6.08203H76.8652V12.459C76.8652 13.2467 77.0052 13.8392 77.2852 14.2363C77.5651 14.627 78.0111 14.8223 78.623 14.8223C79.4564 14.8223 80.0586 14.5456 80.4297 13.9922C80.8008 13.4323 80.9863 12.5078 80.9863 11.2188V6.08203H83.9648V7.22461C84.4271 7.08138 84.7852 6.77214 85.0391 6.29688C85.293 5.8151 85.4199 5.19661 85.4199 4.44141H88.3594L88.5059 4.65625C88.2975 5.67188 88.0176 6.45312 87.666 7C87.3145 7.54688 86.8392 7.98633 86.2402 8.31836C85.6478 8.65039 84.8893 8.88477 83.9648 9.02148V17H81.6797ZM99.0625 11.5215C99.0625 13.2988 98.5938 14.6888 97.6562 15.6914C96.7188 16.694 95.4134 17.1953 93.7402 17.1953C92.6921 17.1953 91.7676 16.9674 90.9668 16.5117C90.166 16.0495 89.5508 15.3887 89.1211 14.5293C88.6914 13.6699 88.4766 12.6673 88.4766 11.5215C88.4766 9.73763 88.9421 8.35091 89.873 7.36133C90.804 6.37174 92.1126 5.87695 93.7988 5.87695C94.528 5.87695 95.2181 5.99089 95.8691 6.21875C96.5202 6.4401 97.0768 6.77539 97.5391 7.22461C98.5091 6.93164 98.9941 6.00391 98.9941 4.44141H101.934L102.08 4.65625C101.904 5.52865 101.673 6.22201 101.387 6.73633C101.107 7.24414 100.736 7.67383 100.273 8.02539C99.8112 8.37044 99.2383 8.6276 98.5547 8.79688C98.8932 9.61068 99.0625 10.5189 99.0625 11.5215ZM91.5137 11.5215C91.5137 12.6022 91.6895 13.4193 92.041 13.9727C92.3991 14.526 92.9785 14.8027 93.7793 14.8027C94.5736 14.8027 95.1432 14.5293 95.4883 13.9824C95.8398 13.429 96.0156 12.6087 96.0156 11.5215C96.0156 10.4408 95.8398 9.63021 95.4883 9.08984C95.1367 8.54948 94.5605 8.2793 93.7598 8.2793C92.9655 8.2793 92.3926 8.54948 92.041 9.08984C91.6895 9.6237 91.5137 10.4342 91.5137 11.5215ZM96.3965 2.47852C96.3965 3.49414 95.8691 4.13542 94.8145 4.40234L94.7168 5.0957H93.0176L92.793 3.66016C93.2812 3.58203 93.6133 3.46159 93.7891 3.29883C93.9648 3.12956 94.0527 2.92448 94.0527 2.68359C94.0527 2.47526 93.9844 2.31576 93.8477 2.20508C93.7109 2.0944 93.5319 2.03906 93.3105 2.03906C92.8874 2.03906 92.4349 2.11393 91.9531 2.26367V0.623047C92.1484 0.557943 92.4154 0.505859 92.7539 0.466797C93.099 0.421224 93.4049 0.398438 93.6719 0.398438C94.5833 0.398438 95.2637 0.580729 95.7129 0.945312C96.1686 1.30339 96.3965 1.81445 96.3965 2.47852ZM109.212 5.72C110.519 5.72 111.559 6.14667 112.332 7C113.119 7.84 113.512 9 113.512 10.48V17H110.112V10.94C110.112 10.1933 109.919 9.61333 109.532 9.2C109.145 8.78667 108.625 8.58 107.972 8.58C107.319 8.58 106.799 8.78667 106.412 9.2C106.025 9.61333 105.832 10.1933 105.832 10.94V17H102.412V5.84H105.832V7.32C106.179 6.82667 106.645 6.44 107.232 6.16C107.819 5.86667 108.479 5.72 109.212 5.72ZM120.128 5.68C120.915 5.68 121.602 5.84 122.188 6.16C122.788 6.48 123.248 6.9 123.568 7.42V5.84H126.988V16.98C126.988 18.0067 126.782 18.9333 126.368 19.76C125.968 20.6 125.348 21.2667 124.508 21.76C123.682 22.2533 122.648 22.5 121.408 22.5C119.755 22.5 118.415 22.1067 117.388 21.32C116.362 20.5467 115.775 19.4933 115.628 18.16H119.008C119.115 18.5867 119.368 18.92 119.768 19.16C120.168 19.4133 120.662 19.54 121.248 19.54C121.955 19.54 122.515 19.3333 122.928 18.92C123.355 18.52 123.568 17.8733 123.568 16.98V15.4C123.235 15.92 122.775 16.3467 122.188 16.68C121.602 17 120.915 17.16 120.128 17.16C119.208 17.16 118.375 16.9267 117.628 16.46C116.882 15.98 116.288 15.3067 115.848 14.44C115.422 13.56 115.208 12.5467 115.208 11.4C115.208 10.2533 115.422 9.24667 115.848 8.38C116.288 7.51333 116.882 6.84667 117.628 6.38C118.375 5.91333 119.208 5.68 120.128 5.68ZM123.568 11.42C123.568 10.5667 123.328 9.89333 122.848 9.4C122.382 8.90667 121.808 8.66 121.128 8.66C120.448 8.66 119.868 8.90667 119.388 9.4C118.922 9.88 118.688 10.5467 118.688 11.4C118.688 12.2533 118.922 12.9333 119.388 13.44C119.868 13.9333 120.448 14.18 121.128 14.18C121.808 14.18 122.382 13.9333 122.848 13.44C123.328 12.9467 123.568 12.2733 123.568 11.42Z" fill="#00AFE7"/>
<path d="M131.063 17.16C130.463 17.16 129.969 16.9867 129.583 16.64C129.209 16.28 129.023 15.84 129.023 15.32C129.023 14.7867 129.209 14.34 129.583 13.98C129.969 13.62 130.463 13.44 131.063 13.44C131.649 13.44 132.129 13.62 132.503 13.98C132.889 14.34 133.083 14.7867 133.083 15.32C133.083 15.84 132.889 16.28 132.503 16.64C132.129 16.9867 131.649 17.16 131.063 17.16Z" fill="#EFA7A7"/>
</svg>
